<svg width="38" height="33" viewBox="0 0 38 33" fill="none" xmlns="http://www.w3.org/2000/svg">
<path d="M19.0001 19.2681H20.5365C22.2267 19.2681 23.6095 18.0681 23.6095 16.6014V3.26807H9.78122C7.47651 3.26807 5.46375 4.37472 4.41895 6.00138" stroke="#343A40" stroke-width="2" stroke-linecap="round" stroke-linejoin="round"/>
<path d="M3.6355 23.2681C3.6355 25.4814 5.69437 27.2681 8.24492 27.2681H9.78139C9.78139 25.8014 11.1642 24.6014 12.8543 24.6014C14.5445 24.6014 15.9273 25.8014 15.9273 27.2681H22.0732C22.0732 25.8014 23.456 24.6014 25.1461 24.6014C26.8362 24.6014 28.2191 25.8014 28.2191 27.2681H29.7555C32.3061 27.2681 34.365 25.4814 34.365 23.2681V19.2681H29.7555C28.9105 19.2681 28.2191 18.6681 28.2191 17.9347V13.9347C28.2191 13.2014 28.9105 12.6014 29.7555 12.6014H31.7375L29.1102 8.61475C28.5571 7.78808 27.5431 7.26807 26.4368 7.26807H23.6096V16.6014C23.6096 18.0681 22.2268 19.2681 20.5367 19.2681H19.0002" stroke="#343A40" stroke-width="2" stroke-linecap="round" stroke-linejoin="round"/>
<path d="M12.8542 29.9347C14.5513 29.9347 15.9271 28.7407 15.9271 27.268C15.9271 25.7952 14.5513 24.6013 12.8542 24.6013C11.1571 24.6013 9.78125 25.7952 9.78125 27.268C9.78125 28.7407 11.1571 29.9347 12.8542 29.9347Z" stroke="#343A40" stroke-width="2" stroke-linecap="round" stroke-linejoin="round"/>
<path d="M25.1462 29.9347C26.8433 29.9347 28.2191 28.7407 28.2191 27.268C28.2191 25.7952 26.8433 24.6013 25.1462 24.6013C23.449 24.6013 22.0732 25.7952 22.0732 27.268C22.0732 28.7407 23.449 29.9347 25.1462 29.9347Z" stroke="#343A40" stroke-width="2" stroke-linecap="round" stroke-linejoin="round"/>
<path d="M34.3649 16.6013V19.268H29.7555C28.9104 19.268 28.219 18.668 28.219 17.9347V13.9347C28.219 13.2013 28.9104 12.6013 29.7555 12.6013H31.7375L34.3649 16.6013Z" stroke="#343A40" stroke-width="2" stroke-linecap="round" stroke-linejoin="round"/>
<path d="M3.6355 11.2681H12.8543" stroke="#343A40" stroke-width="2" stroke-linecap="round" stroke-linejoin="round"/>
<path d="M3.6355 15.2681H9.78139" stroke="#343A40" stroke-width="2" stroke-linecap="round" stroke-linejoin="round"/>
<path d="M3.6355 19.2681H6.70844" stroke="#343A40" stroke-width="2" stroke-linecap="round" stroke-linejoin="round"/>
</svg>
