<svg width="33" height="33" viewBox="0 0 33 33" fill="none" xmlns="http://www.w3.org/2000/svg">
<path d="M12.6818 12.7831L7.07199 7.17334M7.07199 26.0295L12.724 20.3775M20.3148 20.4197L25.9246 26.0295M25.9246 7.17334L20.2717 12.8262M29.8334 16.6014C29.8334 23.9652 23.8639 29.9347 16.5001 29.9347C9.13628 29.9347 3.16675 23.9652 3.16675 16.6014C3.16675 9.2376 9.13628 3.26807 16.5001 3.26807C23.8639 3.26807 29.8334 9.2376 29.8334 16.6014ZM21.8334 16.6014C21.8334 19.5469 19.4456 21.9347 16.5001 21.9347C13.5546 21.9347 11.1667 19.5469 11.1667 16.6014C11.1667 13.6559 13.5546 11.2681 16.5001 11.2681C19.4456 11.2681 21.8334 13.6559 21.8334 16.6014Z" stroke="#343A40" stroke-width="2" stroke-linecap="round" stroke-linejoin="round"/>
</svg>
