<svg width="33" height="33" viewBox="0 0 33 33" fill="none" xmlns="http://www.w3.org/2000/svg">
<path d="M10.6665 3.26929V7.26929" stroke="#343A40" stroke-width="2.30471" stroke-miterlimit="10" stroke-linecap="round" stroke-linejoin="round"/>
<path d="M21.3345 3.26929V7.26929" stroke="#343A40" stroke-width="2.30471" stroke-miterlimit="10" stroke-linecap="round" stroke-linejoin="round"/>
<path d="M4.6665 12.7224H27.3332" stroke="#343A40" stroke-width="2.30471" stroke-miterlimit="10" stroke-linecap="round" stroke-linejoin="round"/>
<path d="M28.0005 15.268V11.268C28.0005 7.26798 26.0005 4.60132 21.3338 4.60132H10.6672C6.00049 4.60132 4.00049 7.26798 4.00049 11.268V22.6013C4.00049 26.6013 6.00049 29.268 10.6672 29.268H14.6672" stroke="#343A40" stroke-width="2.30471" stroke-miterlimit="10" stroke-linecap="round" stroke-linejoin="round"/>
<path d="M15.9938 18.8695H16.0058" stroke="#343A40" stroke-width="3.07295" stroke-linecap="round" stroke-linejoin="round"/>
<path d="M11.0602 18.8695H11.0722" stroke="#343A40" stroke-width="3.07295" stroke-linecap="round" stroke-linejoin="round"/>
<path d="M11.0602 22.8695H11.0722" stroke="#343A40" stroke-width="3.07295" stroke-linecap="round" stroke-linejoin="round"/>
<path d="M31.4962 22.6847V26.6411C31.4962 29.0073 30.1441 30.0213 28.116 30.0213H21.3631C21.0174 30.0213 20.6871 29.9906 20.3798 29.9215C20.1877 29.8907 20.0034 29.837 19.8344 29.7755C18.682 29.3453 17.9829 28.3466 17.9829 26.6411V22.6847C17.9829 20.3185 19.335 19.3044 21.3631 19.3044H28.116C29.8368 19.3044 31.0737 20.0343 31.404 21.7013C31.4578 22.0086 31.4962 22.3236 31.4962 22.6847Z" stroke="#343A40" stroke-width="1.53647" stroke-miterlimit="10" stroke-linecap="round" stroke-linejoin="round"/>
<path d="M24.7357 26.6928C25.8558 26.6928 26.7638 25.7847 26.7638 24.6646C26.7638 23.5445 25.8558 22.6365 24.7357 22.6365C23.6156 22.6365 22.7075 23.5445 22.7075 24.6646C22.7075 25.7847 23.6156 26.6928 24.7357 26.6928Z" stroke="#343A40" stroke-width="1.53647" stroke-miterlimit="10" stroke-linecap="round" stroke-linejoin="round"/>
<path d="M20.3423 22.9763V26.3566" stroke="#343A40" stroke-width="1.53647" stroke-miterlimit="10" stroke-linecap="round" stroke-linejoin="round"/>
<path d="M29.1313 22.9763V26.3566" stroke="#343A40" stroke-width="1.53647" stroke-miterlimit="10" stroke-linecap="round" stroke-linejoin="round"/>
</svg>
